<svg width="45" height="64" viewBox="0 0 45 64" fill="none" xmlns="http://www.w3.org/2000/svg">
<path d="M22.1875 44C28.8162 44 34.1875 38.6287 34.1875 32V12C34.1875 5.37125 28.8162 0 22.1875 0C15.5588 0 10.1875 5.37125 10.1875 12V32C10.1875 38.625 15.45 44 22.1875 44ZM41.1875 24C39.525 24 38.1875 25.3375 38.1875 26.8875V32C38.1875 41.1663 30.4412 48.55 21.15 47.9625C12.89 47.4414 6.1875 39.6387 6.1875 31.3625V26.8875C6.1875 25.3375 4.84375 24 3.1875 24C1.53125 24 0.1875 25.3375 0.1875 26.8875V30.9062C0.1875 42.1138 8.18375 52.1063 19.1875 53.6188V58H14.1875C11.9137 58 10.0825 59.8975 10.1925 62.1963C10.2413 63.225 11.1625 64 12.1875 64H32.1875C33.2153 64 34.1337 63.223 34.1825 62.1963C34.2875 59.9 32.4625 58 30.1875 58H25.1875V53.7788C35.9 52.3125 44.1875 43.1125 44.1875 32V26.8875C44.1875 25.3375 42.85 24 41.1875 24Z" fill="#67767E"/>
</svg>
