<svg width="65" height="64" viewBox="0 0 65 64" fill="none" xmlns="http://www.w3.org/2000/svg">
<g clip-path="url(#clip0_32_6)">
<path d="M61.8223 43.9L48.2598 38.085C46.6623 37.3936 44.7885 37.8599 43.7035 39.2075L38.1923 45.935C29.536 41.685 22.5048 34.6463 18.2548 25.9975L24.981 20.4925C26.3248 19.3949 26.7823 17.5313 26.1028 15.9338L20.289 2.37126C19.5273 0.632511 17.6515 -0.318739 15.8153 0.107511L3.21529 3.01376C1.43404 3.42001 0.18779 4.98876 0.18779 6.82126C0.18779 38.3588 25.8378 64.0088 57.3753 64.0088C59.209 64.0088 60.7728 62.7628 61.1815 60.9813L64.0878 48.3813C64.5087 46.55 63.56 44.65 61.8223 43.9Z" fill="#DC3131"/>
</g>
<defs>
<clipPath id="clip0_32_6">
<rect width="64" height="64" fill="white" transform="translate(0.1875)"/>
</clipPath>
</defs>
</svg>
