<svg width="153" height="66" viewBox="0 0 153 66" fill="none" xmlns="http://www.w3.org/2000/svg">
<path d="M24.0823 12C-0.215095 25.2231 0.377525 34.3141 16.3782 33.9008C32.379 33.4876 38.8978 36.3802 36.5273 40.0992C34.6309 43.0744 19.5389 55.9394 12.2299 62" stroke="#B7FFD4" stroke-width="10"/>
<path d="M54.749 25.73C55.5417 24.6913 56.6213 23.8167 57.988 23.106C59.3547 22.3953 60.899 22.04 62.621 22.04C64.589 22.04 66.3793 22.532 67.992 23.516C69.632 24.4727 70.9167 25.8257 71.846 27.575C72.7753 29.3243 73.24 31.3333 73.24 33.602C73.24 35.8707 72.7753 37.907 71.846 39.711C70.9167 41.4877 69.632 42.8817 67.992 43.893C66.3793 44.877 64.589 45.369 62.621 45.369C60.899 45.369 59.3683 45.0273 58.029 44.344C56.6897 43.6333 55.5963 42.7587 54.749 41.72V55.742H50.075V22.409H54.749V25.73ZM68.484 33.602C68.484 32.044 68.156 30.7047 67.5 29.584C66.8713 28.436 66.024 27.575 64.958 27.001C63.9193 26.3997 62.7987 26.099 61.596 26.099C60.4207 26.099 59.3 26.3997 58.234 27.001C57.1953 27.6023 56.348 28.477 55.692 29.625C55.0633 30.773 54.749 32.126 54.749 33.684C54.749 35.242 55.0633 36.6087 55.692 37.784C56.348 38.932 57.1953 39.8067 58.234 40.408C59.3 41.0093 60.4207 41.31 61.596 41.31C62.7987 41.31 63.9193 41.0093 64.958 40.408C66.024 39.7793 66.8713 38.8773 67.5 37.702C68.156 36.5267 68.484 35.16 68.484 33.602ZM76.3041 33.602C76.3041 31.3333 76.7688 29.3243 77.6981 27.575C78.6548 25.8257 79.9394 24.4727 81.5521 23.516C83.1921 22.532 84.9961 22.04 86.9641 22.04C88.7408 22.04 90.2851 22.3953 91.5971 23.106C92.9364 23.7893 94.0024 24.6503 94.7951 25.689V22.409H99.5101V45H94.7951V41.638C94.0024 42.704 92.9228 43.5923 91.5561 44.303C90.1894 45.0137 88.6314 45.369 86.8821 45.369C84.9414 45.369 83.1648 44.877 81.5521 43.893C79.9394 42.8817 78.6548 41.4877 77.6981 39.711C76.7688 37.907 76.3041 35.8707 76.3041 33.602ZM94.7951 33.684C94.7951 32.126 94.4671 30.773 93.8111 29.625C93.1824 28.477 92.3488 27.6023 91.3101 27.001C90.2714 26.3997 89.1508 26.099 87.9481 26.099C86.7454 26.099 85.6248 26.3997 84.5861 27.001C83.5474 27.575 82.7001 28.436 82.0441 29.584C81.4154 30.7047 81.1011 32.044 81.1011 33.602C81.1011 35.16 81.4154 36.5267 82.0441 37.702C82.7001 38.8773 83.5474 39.7793 84.5861 40.408C85.6521 41.0093 86.7728 41.31 87.9481 41.31C89.1508 41.31 90.2714 41.0093 91.3101 40.408C92.3488 39.8067 93.1824 38.932 93.8111 37.784C94.4671 36.6087 94.7951 35.242 94.7951 33.684ZM104.091 33.684C104.091 31.3607 104.556 29.3243 105.485 27.575C106.442 25.7983 107.754 24.4317 109.421 23.475C111.089 22.5183 113.002 22.04 115.161 22.04C117.895 22.04 120.15 22.696 121.926 24.008C123.73 25.2927 124.947 27.1377 125.575 29.543H120.532C120.122 28.4223 119.466 27.5477 118.564 26.919C117.662 26.2903 116.528 25.976 115.161 25.976C113.248 25.976 111.717 26.6593 110.569 28.026C109.449 29.3653 108.888 31.2513 108.888 33.684C108.888 36.1167 109.449 38.0163 110.569 39.383C111.717 40.7497 113.248 41.433 115.161 41.433C117.867 41.433 119.658 40.244 120.532 37.866H125.575C124.919 40.162 123.689 41.9933 121.885 43.36C120.081 44.6993 117.84 45.369 115.161 45.369C113.002 45.369 111.089 44.8907 109.421 43.934C107.754 42.95 106.442 41.5833 105.485 39.834C104.556 38.0573 104.091 36.0073 104.091 33.684ZM150.938 33.151C150.938 33.9983 150.884 34.7637 150.774 35.447H133.513C133.65 37.251 134.32 38.6997 135.522 39.793C136.725 40.8863 138.201 41.433 139.95 41.433C142.465 41.433 144.242 40.3807 145.28 38.276H150.323C149.64 40.3533 148.396 42.0617 146.592 43.401C144.816 44.713 142.602 45.369 139.95 45.369C137.791 45.369 135.85 44.8907 134.128 43.934C132.434 42.95 131.094 41.5833 130.11 39.834C129.154 38.0573 128.675 36.0073 128.675 33.684C128.675 31.3607 129.14 29.3243 130.069 27.575C131.026 25.7983 132.352 24.4317 134.046 23.475C135.768 22.5183 137.736 22.04 139.95 22.04C142.082 22.04 143.982 22.5047 145.649 23.434C147.317 24.3633 148.615 25.6753 149.544 27.37C150.474 29.0373 150.938 30.9643 150.938 33.151ZM146.059 31.675C146.032 29.953 145.417 28.5727 144.214 27.534C143.012 26.4953 141.522 25.976 139.745 25.976C138.133 25.976 136.752 26.4953 135.604 27.534C134.456 28.5453 133.773 29.9257 133.554 31.675H146.059Z" fill="white"/>
</svg>
