<svg width="73" height="68" viewBox="0 0 73 68" fill="none" xmlns="http://www.w3.org/2000/svg">
<path d="M66.8125 4H6.8125C3.5 4 0.8125 6.6875 0.8125 10V50C0.8125 53.3125 3.5 56 6.8125 56H30.8125L28.8125 62H19.8125C18.1625 62 16.8125 63.35 16.8125 65C16.8125 66.65 18.1625 68 19.8125 68H53.8125C55.4688 68 56.8125 66.6562 56.8125 65C56.8125 63.3438 55.4688 62 53.8125 62H44.8125L42.8125 56H66.8125C70.125 56 72.8125 53.3125 72.8125 50V10C72.8125 6.6875 70.125 4 66.8125 4ZM64.8125 48H8.8125V12H64.8125V48Z" fill="#67767E"/>
<line x1="7.23223" y1="65.8718" x2="70.8718" y2="2.23223" stroke="#DC3131" stroke-width="5"/>
</svg>
