<svg width="21" height="20" viewBox="0 0 21 20" fill="none" xmlns="http://www.w3.org/2000/svg">
<path d="M15.5 3.75V0H11.125C10.0895 0 9.25 0.839453 9.25 1.875V13.125C9.25 14.1605 10.0895 15 11.125 15H18.625C19.6605 15 20.5 14.1605 20.5 13.125V5H16.7852C16.0625 5 15.5 4.4375 15.5 3.75ZM16.75 0V3.75H20.5L16.75 0ZM8 13.75V5H2.375C1.33945 5 0.5 5.83945 0.5 6.875V18.125C0.5 19.1605 1.33945 20 2.375 20H9.875C10.9105 20 11.75 19.1605 11.75 18.125V16.25H10.5C9.12109 16.25 8 15.1289 8 13.75Z" fill="#1A1B1E"/>
</svg>
