<svg width="61" height="64" viewBox="0 0 61 64" fill="none" xmlns="http://www.w3.org/2000/svg">
<path d="M32.1875 44C38.8162 44 44.1875 38.6287 44.1875 32V12C44.1875 5.37125 38.8162 0 32.1875 0C25.5588 0 20.1875 5.37125 20.1875 12V32C20.1875 38.625 25.45 44 32.1875 44ZM51.1875 24C49.525 24 48.1875 25.3375 48.1875 26.8875V32C48.1875 41.1663 40.4412 48.55 31.15 47.9625C22.89 47.4414 16.1875 39.6387 16.1875 31.3625V26.8875C16.1875 25.3375 14.8438 24 13.1875 24C11.5312 24 10.1875 25.3375 10.1875 26.8875V30.9062C10.1875 42.1138 18.1838 52.1063 29.1875 53.6188V58H24.1875C21.9137 58 20.0825 59.8975 20.1925 62.1963C20.2413 63.225 21.1625 64 22.1875 64H42.1875C43.2153 64 44.1337 63.223 44.1825 62.1963C44.2875 59.9 42.4625 58 40.1875 58H35.1875V53.7788C45.9 52.3125 54.1875 43.1125 54.1875 32V26.8875C54.1875 25.3375 52.85 24 51.1875 24Z" fill="#67767E"/>
<line x1="2.23223" y1="58.8008" x2="58.8008" y2="2.23223" stroke="#DC3131" stroke-width="5"/>
</svg>
