<svg width="73" height="64" viewBox="0 0 73 64" fill="none" xmlns="http://www.w3.org/2000/svg">
<path d="M66.8125 0H6.8125C3.5 0 0.8125 2.6875 0.8125 6V46C0.8125 49.3125 3.5 52 6.8125 52H30.8125L28.8125 58H19.8125C18.1625 58 16.8125 59.35 16.8125 61C16.8125 62.65 18.1625 64 19.8125 64H53.8125C55.4688 64 56.8125 62.6562 56.8125 61C56.8125 59.3438 55.4688 58 53.8125 58H44.8125L42.8125 52H66.8125C70.125 52 72.8125 49.3125 72.8125 46V6C72.8125 2.6875 70.125 0 66.8125 0ZM64.8125 44H8.8125V8H64.8125V44Z" fill="#67767E"/>
</svg>
